<?xml version="1.0" encoding="UTF-8"?>
<!DOCTYPE svg PUBLIC "-//W3C//DTD SVG 1.1//EN" "http://www.w3.org/Graphics/SVG/1.1/DTD/svg11.dtd">
<svg xmlns="http://www.w3.org/2000/svg" version="1.1" width="512px" height="512px" style="shape-rendering:geometricPrecision; text-rendering:geometricPrecision; image-rendering:optimizeQuality; fill-rule:evenodd; clip-rule:evenodd" xmlns:xlink="http://www.w3.org/1999/xlink">
<g><path style="opacity:0.948" fill="#fb2778" d="M 165.5,194.5 C 168.978,194.184 172.312,194.684 175.5,196C 176.576,197.726 176.743,199.559 176,201.5C 156.179,238.477 138.512,276.477 123,315.5C 118.082,318.384 113.415,318.051 109,314.5C 109.622,292.419 110.956,270.419 113,248.5C 103.805,269.752 94.805,291.085 86,312.5C 80.925,318.472 74.7583,319.972 67.5,317C 66.8333,315.667 66.1667,314.333 65.5,313C 81.1657,275.5 98.3324,238.667 117,202.5C 122.67,195.937 128.003,195.937 133,202.5C 131.851,220.473 131.185,238.473 131,256.5C 140.333,237.833 149.667,219.167 159,200.5C 160.436,197.558 162.603,195.558 165.5,194.5 Z"/></g>
<g><path style="opacity:0.946" fill="#fb2778" d="M 259.5,194.5 C 262.187,194.336 264.854,194.503 267.5,195C 269.513,195.68 270.846,197.013 271.5,199C 265.338,209.657 258.671,219.99 251.5,230C 251.833,230.167 252.167,230.333 252.5,230.5C 266.011,220.911 279.345,211.077 292.5,201C 297.524,196.979 303.191,194.979 309.5,195C 313.18,196.013 315.513,198.347 316.5,202C 314.179,205.654 311.179,208.654 307.5,211C 288.419,223.957 269.253,236.791 250,249.5C 249.808,252.947 250.475,256.28 252,259.5C 256.076,269.315 260.409,278.982 265,288.5C 285.175,258.657 306.509,229.657 329,201.5C 333.53,195.829 339.363,193.996 346.5,196C 348,196.833 349.167,198 350,199.5C 348.993,218.226 347.16,236.893 344.5,255.5C 348.815,255.046 352.981,254.046 357,252.5C 364.117,234.931 371.784,217.598 380,200.5C 385.428,195.683 391.594,194.183 398.5,196C 399.701,196.903 400.535,198.069 401,199.5C 402.829,214.104 403.663,228.771 403.5,243.5C 414.847,241.631 426.18,239.631 437.5,237.5C 443.217,237.217 445.884,239.884 445.5,245.5C 446.235,249.18 444.901,251.68 441.5,253C 429.195,255.384 416.862,257.551 404.5,259.5C 405.297,274.708 406.63,289.874 408.5,305C 408.477,307.925 407.977,310.759 407,313.5C 405.829,314.893 404.329,315.727 402.5,316C 399.443,316.256 396.443,316.756 393.5,317.5C 391.259,316.968 389.759,315.635 389,313.5C 387.286,296.514 385.786,279.514 384.5,262.5C 379.346,263.33 374.346,264.663 369.5,266.5C 364.846,282.116 360.346,297.783 356,313.5C 355.167,314.333 354.333,315.167 353.5,316C 349.833,316.667 346.167,316.667 342.5,316C 339.651,313.441 338.817,310.274 340,306.5C 343.811,294.236 347.311,281.902 350.5,269.5C 347.518,269.963 344.518,270.296 341.5,270.5C 339.715,282.83 337.881,295.163 336,307.5C 332.543,315.971 326.376,318.638 317.5,315.5C 315.879,312.761 314.879,309.761 314.5,306.5C 316.026,296.063 318.026,285.73 320.5,275.5C 309.835,277.266 299.168,279.099 288.5,281C 282.46,292.247 276.294,303.414 270,314.5C 268.833,315.667 267.667,316.833 266.5,318C 262.5,318.667 258.5,318.667 254.5,318C 253,317.167 251.833,316 251,314.5C 245.194,296.083 239.194,277.749 233,259.5C 224.726,277.048 216.726,294.715 209,312.5C 203.324,317.613 196.991,318.613 190,315.5C 189.299,312.072 189.632,308.738 191,305.5C 207.027,269.093 226.36,234.76 249,202.5C 251.855,198.789 255.355,196.123 259.5,194.5 Z M 384.5,217.5 C 385.33,227.34 385.997,237.34 386.5,247.5C 382.594,247.714 378.761,248.381 375,249.5C 374.5,249.167 374,248.833 373.5,248.5C 377.459,238.253 381.126,227.919 384.5,217.5 Z M 329.5,221.5 C 330.043,221.56 330.376,221.893 330.5,222.5C 327.91,235.117 325.577,247.784 323.5,260.5C 315.2,262.461 306.867,263.961 298.5,265C 308.475,250.207 318.808,235.707 329.5,221.5 Z"/></g>
<g><path style="opacity:0.938" fill="#fb2778" d="M 188.5,195.5 C 191.187,195.336 193.854,195.503 196.5,196C 198.368,196.899 199.368,198.399 199.5,200.5C 195.099,210.869 190.599,221.202 186,231.5C 185.188,238.001 188.021,240.168 194.5,238C 196.286,237.215 197.786,236.049 199,234.5C 207.291,222.085 215.458,209.585 223.5,197C 227.471,195.087 231.471,195.087 235.5,197C 236.894,197.956 237.561,199.289 237.5,201C 236.086,205.33 234.253,209.497 232,213.5C 210.785,245.249 192.118,278.582 176,313.5C 171.071,317.68 165.571,318.513 159.5,316C 158.833,315 158.167,314 157.5,313C 165.748,296.34 174.915,280.173 185,264.5C 186.908,261.794 187.741,258.794 187.5,255.5C 181.824,255.666 176.157,255.499 170.5,255C 166.349,253.2 164.349,250.033 164.5,245.5C 164.924,239.544 166.424,233.877 169,228.5C 172.667,221.167 176.333,213.833 180,206.5C 182.346,202.338 185.179,198.671 188.5,195.5 Z"/></g>
</svg>
